<svg xmlns="http://www.w3.org/2000/svg" viewBox="0 0 256 256">
  <path d="M224.7 31.1C204.3 10.6 179.6.4 150.6.4h-46C75.7.4 51 10.6 30.6 31.1 10.1 51.5-.1 76.2-.1 105.1v46c0 28.9 10.2 53.6 30.7 74.1 20.5 20.5 45.1 30.7 74.1 30.7h46c28.9 0 53.6-10.2 74.1-30.7 20.5-20.5 30.7-45.1 30.7-74.1v-46c0-28.9-10.2-53.6-30.7-74.1Z" fill="#5f33e6"/>
  <path d="m26.4 172.7-.2-12.8-21.8 4.8-.2-9.8 17.2-37 16.4-3.6.6 32.2 5.8-1.3.2 10.7-5.8 1.3.2 12.8-12.3 2.7Zm-.5-23.6v-7.6c-.2-4.2 0-8.7 0-12.9h-.3c-1.3 3.9-2.4 7.9-3.9 11.5L16.8 151l9-2Zm52.7 12.2-.2-12.8-21.8 4.8-.2-9.8 17.2-37 16.4-3.6.6 32.2 5.8-1.3.2 10.7-5.8 1.3.2 12.8-12.3 2.7Zm-.4-23.6v-7.6c-.2-4.2 0-8.7 0-12.9h-.3c-1.3 3.9-2.4 7.9-3.9 11.5l-4.9 10.9 9-2Zm29.2 8.1 6.9-8.8c3.7 3.3 8.4 4.4 11.6 3.7 5.1-1.1 7.6-4 6.8-7.8-.9-4.2-3.8-6.1-13.7-3.9l-.2-9.8c10.5-2.3 12.5-5.9 11.6-10.1-.6-2.9-3.2-4.2-6.8-3.5-2.4.5-4.2 2-7.1 4.7l-8.3-7.2c4.9-5.1 9.9-7.4 15.6-8.7 9.9-2.2 18.2 1.5 19.9 9.4 1.5 6.7-.2 11.8-8 16.6v.3c6.3 1.1 9.6 4.8 10.6 9.4 2.4 11-5.6 18.7-17.6 21.3-6.4 1.4-14.4.5-21.2-5.6Zm53.1-11.6 6.9-8.8c3.7 3.3 7.5 4.5 11.2 3.7 4.4-1 7.6-4.8 6.4-10.2-.9-4.2-3.8-5.9-7.8-5-2.5.6-3.6 1.1-6.9 4l-5.8-3 .7-28.6 30.2-6.6.3 11.8-18.5 4-.5 8.9c1.4-1 2.7-1.5 4.2-1.8 8.1-1.8 15.4 1.8 17.4 11 2.9 13.3-6.3 23.8-17.4 26.2-6.4 1.4-13.5.3-20.3-5.8Zm74.9-7.1-.2-12.8-21.8 4.8-.2-9.8 17.2-37 16.4-3.6.6 32.2 5.8-1.3.2 10.7-5.8 1.3.2 12.8-12.3 2.7Zm-.5-23.6v-7.6c-.2-4.2 0-8.7 0-12.9h-.3c-1.3 3.9-2.3 7.9-3.9 11.5l-4.9 10.9 9-2Z" fill="#fff"/>
</svg>
